<svg xmlns="http://www.w3.org/2000/svg" viewBox="0 0 1168 540"><path fill="#209fda" d="M1166.8 85.5V0H953.76v85.5h48.44l-86.34 106.48-86.4-106.48h48.64V0H718.92v95.72l137.56 169.54-137.56 169.7v17.06h65.58v87.62h93.6v-87.62h-54.18l92.02-113.5 92.06 113.5h-54.24v87.62h213.04v-87.62h-39.9L975.32 265.26 1121 85.5z"/><path d="M664.02 0v85.5h46.6l8.3 10.22V0zm54.9 452.02v-17.06l-13.84 17.06h-41.06v87.62H784.5v-87.62z" fill="#026ba4"/><path d="M322 411.86h75.66a207.66 207.66 0 0 1-37.1 60 209.02 209.02 0 0 1-38.56-60m38.56-222.58a208.29 208.29 0 0 0-46.96 83.86 122.63 122.63 0 0 1 8.58 21.56h74.88a120 120 0 0 1 8.8-21.24 209.03 209.03 0 0 0-45.3-84.18zM322.18 294.7a128.5 128.5 0 0 1 .56 69.7h73.66a122.66 122.66 0 0 1 .6-69.7h-74.82zh-13.5a210.32 210.32 0 0 0-.34 69.7h14.4a128.5 128.5 0 0 0-.56-69.7z" fill="#78212e"/><path d="M710.62 85.5h-46.6V.02h-88V85.5h56.84v73.7a201.18 201.18 0 0 0-118.2-37.72c-58.615-.075-114.55 24.536-154.1 67.8a209.04 209.04 0 0 1 45.24 84.18c21.144-39.96 62.652-64.95 107.86-64.94 67.4 0 119.22 54.64 119.22 122v.68c-.34 67.08-52 121.36-119.22 121.36-45.182.033-86.683-24.907-107.86-64.82-3.93-7.4-7.08-15.188-9.4-23.24h-88a204.13 204.13 0 0 0 5.26 23.56 207.34 207.34 0 0 0 8.4 23.9h75.6a207.66 207.66 0 0 1-37.1 60 208.42 208.42 0 0 0 154.1 67.8c56.805.332 111.1-23.443 149.36-65.42v-22.3h41.04l13.84-17.08V95.74l-8.28-10.24zm-77.74 416.4v37.84h31.14v-65.56a202.02 202.02 0 0 1-31.14 27.72zM313.6 273.14a203.08 203.08 0 0 0-4.92 21.56h13.5a122.63 122.63 0 0 0-8.58-21.56z" fill="#8a8c8f"/><path d="M410.4 294.7c-1.2-7.2-2.74-14.3-4.6-21.24a120.01 120.01 0 0 0-8.8 21.24 122.66 122.66 0 0 0-.6 69.7h14.32c3.544-23.107 3.436-46.627-.32-69.7zM209.06 121.48c-101.64.008-188.55 73.092-206 173.22H91.4c15.736-51.233 63.065-86.196 116.66-86.18 44.58-.185 85.436 24.83 105.54 64.62a208.29 208.29 0 0 1 46.96-83.86 200.72 200.72 0 0 0-151.5-67.8zm88.42 290.38a117.18 117.18 0 0 1-89.42 40.72c-54.37.018-102.2-35.942-117.26-88.18h217.54a210.32 210.32 0 0 1 .34-69.7H3.06a211.76 211.76 0 0 0-.34 69.7c16.61 101.04 103.94 175.2 206.34 175.2a200.72 200.72 0 0 0 151.5-67.86 209.02 209.02 0 0 1-38.56-60l-24.52.12z" fill="#b72768"/></svg>